<?xml version="1.0" encoding="utf-8"?>
<svg version="1.1" xmlns:xlink="http://www.w3.org/1999/xlink" width="29px" height="30px" xmlns="http://www.w3.org/2000/svg">
  <g transform="matrix(1 0 0 1 -166 -615 )">
    <path d="M 28.6777777777778 16.3482142857143  C 28.6707116116431 15.7020467944919  28.4814256272679 15.0745207972947  28.1364444444444 14.5535714285714  L 23.7526111111111 7.85714285714286  C 23.2414689101894 7.01738900460389  22.3852019048303 6.51671731119944  21.4712777777778 6.52321428571428  L 16.9666111111111 6.52321428571428  L 16.9666111111111 3.37321428571429  C 16.9719735884045 1.65838502614976  15.7249075328467 0.26179582399322  14.1777777777778 0.25  L 5.62277777777778 0.25  C 5.10184092999789 0.249646242108232  4.67434380643132 0.706889163065825  4.65611111111111 1.28392857142857  C 4.65549696325732 1.29866649192162  4.6551897666515 1.31341815930502  4.6551897666515 1.32817179142652  C 4.6551897666515 1.85777341760355  5.04253807725623 2.28710036285509  5.52035643331817 2.28710036285509  C 5.55458717489077 2.28710036285509  5.58878774800373 2.28484866434661  5.62277777777778 2.28035714285714  L 14.0859444444444 2.28035714285714  C 14.6198197026142 2.28035714285714  15.0526111111111 2.76005205375272  15 3.35178571428571  L 15 24.5982142857143  L 11.9254444444444 24.5982142857143  C 11.6301840187818 22.5741859051738  10.0536170492051 21.086601764178  8.20377777777778 21.086601764178  C 6.35393850635048 21.086601764178  4.77737153677376 22.5741859051738  4.48211111111111 24.5982142857143  L 1.30177777777778 24.5982142857143  C 0.779025683770885 24.5979534964946  0.350793622568097 25.0583557002261  0.335111111111111 25.6375  L 0.335111111111111 25.6642857142857  C 0.335111111111111 26.2560193748187  0.767902519608011 26.7357142857143  1.30177777777778 26.7357142857143  L 4.68511111111111 26.7357142857143  C 5.22686094031644 28.3789474282061  6.63984751818053 29.4694455502866  8.21827777777778 29.4625  C 9.78253366732583 29.4436532112386  11.1751148485803 28.3600088437634  11.7224444444444 26.7357142857143  L 18.4891111111111 26.7357142857143  C 19.0320467664899 28.3779343509865  20.444293349945 29.4678613689065  22.0222777777778 29.4625  C 23.5860944066155 29.4421422124189  24.9779818518782 28.3590376792529  25.5264444444444 26.7357142857143  L 25.8647777777778 26.7357142857143  C 27.4191362870988 26.7327592021998  28.6777800643507 25.3353136900283  28.6777777777778 23.6125  L 28.6777777777778 16.3482142857143  Z M 8.20377777777778 27.4107142857143  C 8.1807902622593 27.4116953420578  8.15778784205431 27.4121860064787  8.13478329193252 27.4121860064787  C 7.1444446880276 27.4121860064787  6.34161662526585 26.5223519467674  6.34161662526585 25.4246860064787  C 6.34161662526585 25.3991883524029  6.34205931361012 25.3736930590722  6.34294444444444 25.3482142857143  C 6.34294444444444 24.2091269891883  7.17606790580098 23.2857142857143  8.20377777777778 23.2857142857143  C 9.23148764975458 23.2857142857143  10.0646111111111 24.2091269891883  10.0646111111111 25.3482142857143  C 10.0646111111111 26.4873015822403  9.23148764975458 27.4107142857143  8.20377777777778 27.4107142857143  Z M 22.0126111111111 27.4107142857143  C 21.9896235955926 27.4116953420578  21.9666211753876 27.4121860064787  21.9436166252659 27.4121860064787  C 20.9532780213609 27.4121860064787  20.1504499585992 26.5223519467674  20.1504499585992 25.4246860064787  C 20.1504499585992 25.3991883524029  20.1508926469435 25.3736930590722  20.1517777777778 25.3482142857143  C 20.1517777777778 24.2091269891883  20.9849012391343 23.2857142857143  22.0126111111111 23.2857142857143  C 23.0403209830879 23.2857142857143  23.8734444444444 24.2091269891883  23.8734444444444 25.3482142857143  C 23.8734444444444 26.4873015822403  23.0403209830879 27.4107142857143  22.0126111111111 27.4107142857143  Z M 26.8169444444445 16.3482142857143  L 26.8169444444444 23.5535714285714  C 26.8171797342738 24.1329764588746  26.4017946349071 24.6076179060206  25.8792777777778 24.625  L 25.7342777777778 24.625  C 25.4543576967892 22.5860992257841  23.8726772289498 21.0795901329103  22.0119600275653 21.0795901329103  C 20.1289936176732 21.0795901329103  18.535539054331 22.6213686901021  18.2812777777778 24.6892857142857  L 17 24.6892857142857  L 17 8.56428571428571  L 21.4712777777778 8.56428571428571  C 21.7826466586451 8.57956911436943  22.0708128726885 8.75109662272858  22.2542777777778 9.03035714285714  L 26.6332777777778 15.7535714285714  C 26.7486898669945 15.9258583363809  26.8128787975375 16.1336776960272  26.8169444444445 16.3482142857143  Z " fill-rule="nonzero" fill="#8a8a8a" stroke="none" transform="matrix(1 0 0 1 166 615 )" />
  </g>
</svg>