<?xml version="1.0" encoding="utf-8"?>
<svg version="1.1" xmlns:xlink="http://www.w3.org/1999/xlink" width="30px" height="30px" xmlns="http://www.w3.org/2000/svg">
  <g transform="matrix(1 0 0 1 -31 -615 )">
    <path d="M 29.9567564732143 5.52528385546875  C 29.9567564732143 1.65416448046875  28.5953023995536 0.224745632812501  26.914933125 0.224745632812501  L 6.22594309151786 0.2247456328125  C 4.49794895089286 0.2247456328125  3.09106282366072 1.7006809453125  3 3.5168735625  L 3 24.2113027382813  L 3.08503262276786 24.2113027382813  L 0.0432092745535712 24.2113027382813  C 0.0432092745535712 29.044445859375  1.74201177455357 29.7752184023438  3.83962958705357 29.7752184023438  L 6.22594309151786 29.7752184023438  L 19.5623752901786 29.7752184023438  L 21.9877480245536 29.7752184023438  C 23.7171469084821 29.7752184023438  25.1233477901786 28.2992830898438  25 26.4832703320313  L 25 5.52528385546875  L 29.9567564732143 5.52528385546875  Z M 23.8686556138393 26.4828386484375  C 23.8686556138393 27.5717124023437  23.0251817745536 28.4577556523437  21.9877822767857 28.4577556523437  C 20.308680703125 28.4577556523437  19.4492062834821 28.0815227460937  19.4492062834821 24.210547265625  L 15.0687476785714 24  L 4.345755 24  L 4.345755 3.51640587890625  C 4.345755 2.427532125  5.18809818080357 1.541488875  6.22563472098214 2  L 24.6962659151786 2  C 24.1989802232143 2.36903578125  23.8892130803571 3.62145465234375  23.8756794308036 5.4089747109375  C 23.8716707142857 5.4491954296875  23.8683815290179 5.48927225390625  23.8683815290179 5.52528385546875  L 23.8683815290179 26.4828386484375  Z " fill-rule="nonzero" fill="#7f7f7f" stroke="none" transform="matrix(1 0 0 1 31 615 )" />
  </g>
</svg>