<?xml version="1.0" encoding="utf-8"?>
<svg version="1.1" xmlns:xlink="http://www.w3.org/1999/xlink" width="30px" height="17px" xmlns="http://www.w3.org/2000/svg">
  <g transform="matrix(1 0 0 1 -307 -628 )">
    <path d="M 29.9808 11.5878476190476  C 29.9828571428571 7.11344761904762  27.6150857142857 3.35596190476191  23.6509714285714 0.888533333333333  C 23.0214857142857 0.49607619047619  22.1677714285714 0.57767619047619  21.6246857142857 1.08281904761905  C 19.8699428571429 2.70899047619048  17.5494857142857 3.60464761904762  15.0912 3.60464761904762  C 12.6329142857143 3.60464761904762  10.3124571428571 2.70899047619048  8.55771428571428 1.08281904761905  C 8.01462857142857 0.57767619047619  7.16091428571428 0.49607619047619  6.53142857142857 0.888533333333333  C 2.56731428571428 3.3559619047619  0.199542857142855 7.11344761904762  0.199542857142855 11.5878476190476  L 0.199542857142855 13.5734476190476  C 0.199542857142855 15.0344761904762  1.45851428571428 16.2235047619048  3.00548571428571 16  L 27.1748571428571 16  C 28.7218285714286 16.2235047619048  29.9808 15.0344761904762  29.9808 13.5734476190476  L 29.9808 11.5878476190476  Z " fill-rule="nonzero" fill="#8a8a8a" stroke="none" transform="matrix(1 0 0 1 307 628 )" />
  </g>
</svg>